<svg width="763" height="450" viewBox="0 0 763 450" fill="none" xmlns="http://www.w3.org/2000/svg">
<path d="M196.386 392.547H111.807V438.509H196.386V392.547Z" fill="#2F3B5E"/>
<path d="M19.6099 419.754C8.78054 419.754 0 410.974 0 400.145V213.603C0 202.774 8.78054 193.994 19.6099 193.994H288.581C299.41 193.994 308.191 202.774 308.191 213.605V400.146C308.191 410.976 299.412 419.756 288.581 419.756H19.6099V419.754Z" fill="#64A8C5"/>
<path d="M285.64 409.198H22.552C15.9264 409.198 10.5576 403.827 10.5576 397.201V216.545C10.5576 209.921 15.9281 204.551 22.552 204.551H285.638C292.263 204.551 297.634 209.921 297.634 216.545V397.201C297.634 403.827 292.263 409.198 285.64 409.198Z" fill="#D4E5F8"/>
<path d="M230.175 450H78.0154C76.5676 450 75.3938 448.826 75.3938 447.378V441.133C75.3938 439.685 76.5676 438.511 78.0154 438.511H230.173C231.621 438.511 232.795 439.685 232.795 441.133V447.378C232.797 448.826 231.623 450 230.175 450Z" fill="#64A8C5"/>
<path d="M263.593 222.375H37.5263C30.8972 222.375 25.5214 227.751 25.5214 234.38V236.984V386.441C25.5214 393.072 30.8972 398.446 37.5263 398.446H263.595C270.224 398.446 275.6 393.072 275.6 386.441V236.984V234.38C275.598 227.749 270.224 222.375 263.593 222.375Z" fill="#A7BFD9"/>
<path d="M267.129 394.908H41.062C34.4328 394.908 29.057 389.534 29.057 382.903V230.843C29.057 224.214 34.4328 218.838 41.062 218.838H267.13C273.76 218.838 279.135 224.214 279.135 230.843V382.903C279.134 389.534 273.76 394.908 267.129 394.908Z" fill="#FEFEFE"/>
<path d="M279.134 233.447V230.843C279.134 224.214 273.76 218.838 267.129 218.838H41.062C34.4328 218.838 29.057 224.214 29.057 230.843V233.447H279.134Z" fill="#A5D9F5"/>
<path d="M44.1943 229.091C45.8218 229.091 47.1412 227.771 47.1412 226.144C47.1412 224.516 45.8218 223.197 44.1943 223.197C42.5668 223.197 41.2474 224.516 41.2474 226.144C41.2474 227.771 42.5668 229.091 44.1943 229.091Z" fill="#FEFEFE"/>
<path d="M56.4946 229.091C58.1221 229.091 59.4415 227.771 59.4415 226.144C59.4415 224.516 58.1221 223.197 56.4946 223.197C54.8671 223.197 53.5477 224.516 53.5477 226.144C53.5477 227.771 54.8671 229.091 56.4946 229.091Z" fill="#FEFEFE"/>
<path d="M68.7949 229.091C70.4224 229.091 71.7418 227.771 71.7418 226.144C71.7418 224.516 70.4224 223.197 68.7949 223.197C67.1674 223.197 65.848 224.516 65.848 226.144C65.848 227.771 67.1674 229.091 68.7949 229.091Z" fill="#FEFEFE"/>
<path d="M226.789 255.855H149.088L132.326 246.652C131.09 245.973 129.7 245.618 128.29 245.618H82.3771C79.3489 245.618 76.8917 248.073 76.8917 251.103V262.444V266.389V335.996H227.448L233.354 262.972C233.663 259.14 230.635 255.855 226.789 255.855Z" fill="#E5A505"/>
<path d="M221.43 324.392H89.207C87.2713 324.392 85.5565 322.816 85.3762 320.868L80.7447 270.432C80.5414 268.205 82.0634 266.389 84.1476 266.389H226.489C228.573 266.389 230.097 268.205 229.892 270.432L225.26 320.868C225.082 322.816 223.367 324.392 221.43 324.392Z" fill="#FCFFFD"/>
<path d="M226.282 331.802H84.7171C82.6453 331.802 80.8085 330.119 80.6176 328.032L75.659 274.031C75.4398 271.645 77.0715 269.702 79.3024 269.702H231.699C233.932 269.702 235.561 271.645 235.342 274.031L230.384 328.032C230.191 330.119 228.356 331.802 226.282 331.802Z" fill="#FCFFFD"/>
<path d="M230.2 338.711H80.8018C78.6151 338.711 76.6776 336.933 76.4743 334.73L71.2417 277.744C71.0119 275.225 72.7319 273.176 75.0866 273.176H235.915C238.272 273.176 239.992 275.227 239.76 277.744L234.528 334.73C234.324 336.934 232.389 338.711 230.2 338.711Z" fill="#FCFFFD"/>
<path d="M73.4884 276.775H236.523C240.876 276.775 244.257 280.567 243.761 284.891L234.117 368.908C233.822 371.48 231.646 373.421 229.06 373.421H80.9502C78.3639 373.421 76.1878 371.48 75.8926 368.908L66.2494 284.891C65.7544 280.567 69.1361 276.775 73.4884 276.775Z" fill="#F0C74B"/>
<path d="M650.548 392.547H565.969V438.51H650.548V392.547Z" fill="#2F3B5E"/>
<path d="M473.773 419.755C462.942 419.755 454.162 410.974 454.162 400.145V213.604C454.162 202.774 462.942 193.994 473.773 193.994H742.744C753.573 193.994 762.354 202.774 762.354 213.606V400.147C762.354 410.976 753.575 419.757 742.744 419.757H473.773V419.755Z" fill="#64A8C5"/>
<path d="M739.801 409.198H476.716C470.092 409.198 464.721 403.827 464.721 397.202V216.545C464.721 209.922 470.092 204.551 476.716 204.551H739.801C746.427 204.551 751.796 209.922 751.796 216.545V397.202C751.796 403.827 746.427 409.198 739.801 409.198Z" fill="#D4E5F8"/>
<path d="M684.338 450H532.18C530.732 450 529.56 448.826 529.56 447.378V441.133C529.56 439.685 530.732 438.511 532.18 438.511H684.338C685.786 438.511 686.96 439.685 686.96 441.133V447.378C686.961 448.826 685.788 450 684.338 450Z" fill="#64A8C5"/>
<path d="M717.757 222.375H491.69C485.059 222.375 479.685 227.751 479.685 234.38V236.984V386.441C479.685 393.072 485.059 398.446 491.69 398.446H717.759C724.388 398.446 729.762 393.072 729.762 386.441V236.984V234.38C729.762 227.749 724.386 222.375 717.757 222.375Z" fill="#A7BFD9"/>
<path d="M721.293 394.908H495.226C488.595 394.908 483.221 389.534 483.221 382.903V230.843C483.221 224.214 488.595 218.838 495.226 218.838H721.294C727.924 218.838 733.298 224.214 733.298 230.843V382.903C733.298 389.534 727.922 394.908 721.293 394.908Z" fill="#FEFEFE"/>
<path d="M733.298 233.447V230.843C733.298 224.214 727.924 218.838 721.294 218.838H495.226C488.595 218.838 483.221 224.214 483.221 230.843V233.447H733.298Z" fill="#A5D9F5"/>
<path d="M498.358 229.091C499.985 229.091 501.305 227.772 501.305 226.144C501.305 224.517 499.985 223.197 498.358 223.197C496.73 223.197 495.411 224.517 495.411 226.144C495.411 227.772 496.73 229.091 498.358 229.091Z" fill="#FEFEFE"/>
<path d="M510.658 229.091C512.286 229.091 513.605 227.772 513.605 226.144C513.605 224.516 512.286 223.197 510.658 223.197C509.031 223.197 507.711 224.516 507.711 226.144C507.711 227.772 509.031 229.091 510.658 229.091Z" fill="#FEFEFE"/>
<path d="M522.958 229.091C524.586 229.091 525.905 227.772 525.905 226.144C525.905 224.516 524.586 223.197 522.958 223.197C521.331 223.197 520.011 224.516 520.011 226.144C520.011 227.772 521.331 229.091 522.958 229.091Z" fill="#FEFEFE"/>
<path d="M680.952 255.855H603.251L586.489 246.652C585.253 245.973 583.866 245.618 582.453 245.618H536.54C533.51 245.618 531.055 248.074 531.055 251.104V262.444V266.389V335.996H681.61L687.516 262.972C687.827 259.14 684.799 255.855 680.952 255.855Z" fill="#E5A505"/>
<path d="M675.594 324.392H543.371C541.434 324.392 539.721 322.817 539.541 320.868L534.909 270.432C534.706 268.205 536.228 266.389 538.314 266.389H680.653C682.739 266.389 684.261 268.205 684.058 270.432L679.427 320.868C679.244 322.817 677.531 324.392 675.594 324.392Z" fill="#FCFFFD"/>
<path d="M680.446 331.803H538.881C536.807 331.803 534.972 330.12 534.782 328.032L529.823 274.032C529.604 271.645 531.235 269.702 533.466 269.702H685.863C688.096 269.702 689.725 271.645 689.506 274.032L684.548 328.032C684.355 330.12 682.52 331.803 680.446 331.803Z" fill="#FCFFFD"/>
<path d="M684.363 338.711H534.963C532.777 338.711 530.839 336.933 530.638 334.73L525.403 277.744C525.172 275.225 526.893 273.176 529.25 273.176H690.079C692.435 273.176 694.157 275.227 693.925 277.744L688.691 334.73C688.488 336.935 686.55 338.711 684.363 338.711Z" fill="#FCFFFD"/>
<path d="M527.65 276.775H690.685C695.038 276.775 698.419 280.567 697.923 284.891L688.281 368.908C687.986 371.48 685.812 373.421 683.224 373.421H535.116C532.528 373.421 530.353 371.48 530.058 368.908L520.417 284.891C519.916 280.567 523.3 276.775 527.65 276.775Z" fill="#F0C74B"/>
<path d="M141.171 144.398L106.372 214.214L201.524 261.641L236.322 191.825L141.171 144.398Z" fill="#FFE9B3"/>
<path d="M145.934 156.664L119.031 210.638L122.025 212.13L148.927 158.157L145.934 156.664Z" fill="white"/>
<path d="M152.381 159.876L125.479 213.848L128.473 215.34L155.374 161.368L152.381 159.876Z" fill="white"/>
<path d="M149.809 181.188L131.926 217.066L134.919 218.558L152.803 182.68L149.809 181.188Z" fill="white"/>
<path d="M165.275 166.299L138.373 220.273L141.365 221.764L168.267 167.79L165.275 166.299Z" fill="white"/>
<path d="M171.722 169.516L144.82 223.489L147.814 224.981L174.715 171.008L171.722 169.516Z" fill="white"/>
<path d="M168.693 191.745L151.268 226.704L154.262 228.196L171.687 193.237L168.693 191.745Z" fill="white"/>
<path d="M184.616 175.942L157.714 229.914L160.706 231.406L187.608 177.433L184.616 175.942Z" fill="white"/>
<path d="M181.587 198.17L164.162 233.129L167.156 234.621L184.581 199.662L181.587 198.17Z" fill="white"/>
<path d="M197.511 182.37L170.609 236.344L173.602 237.836L200.504 183.862L197.511 182.37Z" fill="white"/>
<path d="M203.957 185.582L177.055 239.555L180.047 241.046L206.949 187.074L203.957 185.582Z" fill="white"/>
<path d="M201.8 206.053L183.5 242.767L186.494 244.259L204.793 207.545L201.8 206.053Z" fill="white"/>
<path d="M216.851 192.002L189.949 245.974L192.941 247.466L219.842 193.493L216.851 192.002Z" fill="white"/>
<path d="M214.694 212.48L196.394 249.194L199.388 250.686L217.687 213.972L214.694 212.48Z" fill="white"/>
<path d="M265.732 30.5645L197.086 67.6098L247.576 161.168L316.222 124.122L265.732 30.5645Z" fill="#FFE9B3"/>
<path d="M262.567 43.3317L209.5 71.9702L211.088 74.9134L264.156 46.275L262.567 43.3317Z" fill="#FCFCFC"/>
<path d="M265.987 49.6689L212.919 78.3074L214.508 81.2507L267.575 52.6122L265.987 49.6689Z" fill="#FCFCFC"/>
<path d="M251.617 65.6153L216.339 84.653L217.928 87.5963L253.205 68.5586L251.617 65.6153Z" fill="#FCFCFC"/>
<path d="M272.828 62.3518L219.76 90.9903L221.348 93.9336L274.416 65.2951L272.828 62.3518Z" fill="#FCFCFC"/>
<path d="M276.249 68.6909L223.181 97.3294L224.769 100.273L277.837 71.6342L276.249 68.6909Z" fill="#FCFCFC"/>
<path d="M260.975 85.1218L226.6 103.673L228.188 106.616L262.563 88.065L260.975 85.1218Z" fill="#FCFCFC"/>
<path d="M283.09 81.3644L230.022 110.003L231.61 112.946L284.678 84.3077L283.09 81.3644Z" fill="#FCFCFC"/>
<path d="M267.819 97.7918L233.443 116.343L235.032 119.286L269.407 100.735L267.819 97.7918Z" fill="#FCFCFC"/>
<path d="M289.93 94.0461L236.862 122.685L238.451 125.628L291.518 96.9894L289.93 94.0461Z" fill="#FCFCFC"/>
<path d="M293.35 100.385L240.283 129.023L241.871 131.966L294.939 103.328L293.35 100.385Z" fill="#FCFCFC"/>
<path d="M279.804 115.881L243.705 135.362L245.294 138.305L281.392 118.824L279.804 115.881Z" fill="#FCFCFC"/>
<path d="M300.193 113.057L247.125 141.696L248.713 144.639L301.781 116.001L300.193 113.057Z" fill="#FCFCFC"/>
<path d="M286.645 128.558L250.546 148.039L252.135 150.982L288.233 131.501L286.645 128.558Z" fill="#FCFCFC"/>
<path d="M433.165 9.23599L355.704 0L343.116 105.572L420.577 114.808L433.165 9.23599Z" fill="#FFE9B3"/>
<path d="M423.225 17.855L363.341 10.7148L362.945 14.036L422.829 21.1763L423.225 17.855Z" fill="white"/>
<path d="M422.369 25.0066L362.487 17.8666L362.091 21.1878L421.973 28.3278L422.369 25.0066Z" fill="white"/>
<path d="M401.443 29.7657L361.635 25.0193L361.239 28.3405L401.047 33.0869L401.443 29.7657Z" fill="white"/>
<path d="M420.666 39.3129L360.782 32.1726L360.386 35.4939L420.27 42.6341L420.666 39.3129Z" fill="white"/>
<path d="M419.814 46.4656L359.93 39.3254L359.534 42.6466L419.418 49.7868L419.814 46.4656Z" fill="white"/>
<path d="M397.865 51.1034L359.075 46.4784L358.679 49.7996L397.469 54.4246L397.865 51.1034Z" fill="white"/>
<path d="M418.087 60.812L358.205 53.666L357.809 56.9872L417.691 64.1332L418.087 60.812Z" fill="white"/>
<path d="M396.142 65.4436L357.355 60.8149L356.958 64.1361L395.746 68.7648L396.142 65.4436Z" fill="white"/>
<path d="M416.402 75.0764L356.518 67.9362L356.122 71.2574L416.006 78.3977L416.402 75.0764Z" fill="white"/>
<path d="M415.549 82.2261L355.667 75.0861L355.271 78.4073L415.153 85.5473L415.549 82.2261Z" fill="white"/>
<path d="M395.546 87.0983L354.812 82.2414L354.416 85.5626L395.15 90.4195L395.546 87.0983Z" fill="white"/>
<path d="M413.842 96.5341L353.96 89.3941L353.564 92.7153L413.446 99.8553L413.842 96.5341Z" fill="white"/>
<path d="M393.842 101.403L353.108 96.5462L352.712 99.8674L393.446 104.724L393.842 101.403Z" fill="white"/>
<path d="M582.251 88.2029L524.245 36.0476L453.163 115.103L511.169 167.258L582.251 88.2029Z" fill="#FFE9B3"/>
<path d="M569.165 89.522L524.323 49.2026L522.086 51.6897L566.929 92.009L569.165 89.522Z" fill="white"/>
<path d="M564.347 94.8823L519.503 54.5618L517.267 57.0488L562.11 97.3694L564.347 94.8823Z" fill="white"/>
<path d="M544.499 86.7202L514.69 59.9174L512.454 62.4045L542.263 89.2072L544.499 86.7202Z" fill="white"/>
<path d="M554.713 105.594L509.87 65.2734L507.634 67.7605L552.477 108.081L554.713 105.594Z" fill="white"/>
<path d="M549.892 110.953L505.048 70.6329L502.812 73.1199L547.655 113.44L549.892 110.953Z" fill="white"/>
<path d="M529.277 102.106L500.232 75.9895L497.996 78.4765L527.041 104.593L529.277 102.106Z" fill="white"/>
<path d="M540.263 121.666L495.419 81.3451L493.183 83.8322L538.027 124.153L540.263 121.666Z" fill="white"/>
<path d="M519.656 112.814L490.61 86.6977L488.373 89.186L517.419 115.302L519.656 112.814Z" fill="white"/>
<path d="M530.639 132.372L485.797 92.0524L483.561 94.5395L528.403 134.859L530.639 132.372Z" fill="white"/>
<path d="M525.814 137.734L480.971 97.4131L478.734 99.9002L523.578 140.221L525.814 137.734Z" fill="white"/>
<path d="M506.654 130.199L476.149 102.771L473.913 105.258L504.418 132.686L506.654 130.199Z" fill="white"/>
<path d="M516.191 148.441L471.349 108.121L469.113 110.608L513.955 150.928L516.191 148.441Z" fill="white"/>
<path d="M497.035 140.906L466.532 113.479L464.296 115.966L494.799 143.393L497.035 140.906Z" fill="white"/>
<path d="M654.409 221.023L629.65 147.049L528.831 180.794L553.59 254.768L654.409 221.023Z" fill="#FFE9B3"/>
<path d="M642.369 215.72L623.227 158.532L620.056 159.594L639.197 216.782L642.369 215.72Z" fill="white"/>
<path d="M635.558 218.01L616.417 160.823L613.245 161.885L632.386 219.071L635.558 218.01Z" fill="white"/>
<path d="M622.306 201.123L609.583 163.108L606.411 164.17L619.135 202.185L622.306 201.123Z" fill="white"/>
<path d="M621.877 222.579L602.736 165.391L599.564 166.453L618.705 223.641L621.877 222.579Z" fill="white"/>
<path d="M615.047 224.866L595.906 167.677L592.734 168.739L611.875 225.927L615.047 224.866Z" fill="white"/>
<path d="M601.472 207.008L589.073 169.965L585.902 171.026L598.3 208.069L601.472 207.008Z" fill="white"/>
<path d="M601.387 229.439L582.246 172.251L579.074 173.313L598.215 230.501L601.387 229.439Z" fill="white"/>
<path d="M587.84 211.586L575.442 174.543L572.27 175.605L584.669 212.648L587.84 211.586Z" fill="white"/>
<path d="M587.726 234.011L568.585 176.823L565.413 177.884L584.554 235.073L587.726 234.011Z" fill="white"/>
<path d="M580.897 236.297L561.755 179.109L558.582 180.171L577.723 237.359L580.897 236.297Z" fill="white"/>
<path d="M567.947 220.297L554.926 181.396L551.755 182.458L564.775 221.358L567.947 220.297Z" fill="white"/>
<path d="M567.234 240.87L548.093 183.682L544.921 184.744L564.062 241.932L567.234 240.87Z" fill="white"/>
<path d="M554.286 224.87L541.266 185.97L538.094 187.031L551.114 225.932L554.286 224.87Z" fill="white"/>
<path d="M255.93 214.827C277.413 172.634 324.426 143.361 378.963 143.361C434.067 143.361 481.487 173.244 502.658 216.144" stroke="#2F3B5E" stroke-width="6.3984" stroke-miterlimit="10"/>
<path d="M238.843 205.377L273.019 223.075L244.383 236.527L238.843 205.377Z" fill="#2F3B5E"/>
<path d="M519.745 205.377L485.571 223.075L514.207 236.527L519.745 205.377Z" fill="#2F3B5E"/>
</svg>
